HIERARCHY
ROOT RootJoint
{
    OFFSET   0.000000   0.000000   0.000000
    CHANNELS 6 Xposition Yposition Zposition Xrotation Yrotation Zrotation
    JOINT pelvis_lowerback
    {
        OFFSET   0.000000   0.093605   0.000000
        CHANNELS 3 Xrotation Yrotation Zrotation
        JOINT lowerback_torso
        {
            OFFSET   0.000000   0.100000   0.000000
            CHANNELS 3 Xrotation Yrotation Zrotation
            JOINT torso_head
            {
                OFFSET   0.000000   0.282350   0.000000
                CHANNELS 3 Xrotation Yrotation Zrotation
                End Site
                {
                    OFFSET   0.000000   0.192650   0.000000
                }
            }
            JOINT rTorso_Clavicle
            {
                OFFSET  -0.001000   0.157500   0.000000
                CHANNELS 3 Xrotation Yrotation Zrotation
                JOINT rShoulder
                {
                    OFFSET  -0.117647   0.000000   0.000000
                    CHANNELS 3 Xrotation Yrotation Zrotation
                    JOINT rElbow
                    {
                        OFFSET  -0.245000   0.000000   0.000000
                        CHANNELS 3 Xrotation Yrotation Zrotation
                        JOINT rWrist
                        {
                            OFFSET  -0.240000   0.000000   0.000000
                            CHANNELS 3 Xrotation Yrotation Zrotation
                            End Site
                            {
                                OFFSET  -0.116353  -0.002500   0.000000
                            }
                        }
                    }
                }
            }
            JOINT lTorso_Clavicle
            {
                OFFSET   0.001000   0.157500   0.000000
                CHANNELS 3 Xrotation Yrotation Zrotation
                JOINT lShoulder
                {
                    OFFSET   0.117647   0.000000   0.000000
                    CHANNELS 3 Xrotation Yrotation Zrotation
                    JOINT lElbow
                    {
                        OFFSET   0.245000   0.000000   0.000000
                        CHANNELS 3 Xrotation Yrotation Zrotation
                        JOINT lWrist
                        {
                            OFFSET   0.240000   0.000000   0.000000
                            CHANNELS 3 Xrotation Yrotation Zrotation
                            End Site
                            {
                                OFFSET   0.116353  -0.002500   0.000000
                            }
                        }
                    }
                }
            }
        }
    }
    JOINT rHip
    {
        OFFSET  -0.100000  -0.051395   0.000000
        CHANNELS 3 Xrotation Yrotation Zrotation
        JOINT rKnee
        {
            OFFSET   0.000000  -0.410000   0.000000
            CHANNELS 3 Xrotation Yrotation Zrotation
            JOINT rAnkle
            {
                OFFSET   0.000000  -0.390000   0.000000
                CHANNELS 3 Xrotation Yrotation Zrotation
                JOINT rToeJoint
                {
                    OFFSET   0.000000  -0.050000   0.130000
                    CHANNELS 3 Xrotation Yrotation Zrotation
                    End Site
                    {
                        OFFSET  -0.010000   0.002000   0.060000
                    }
                }
            }
        }
    }
    JOINT lHip
    {
        OFFSET   0.100000  -0.051395   0.000000
        CHANNELS 3 Xrotation Yrotation Zrotation
        JOINT lKnee
        {
            OFFSET   0.000000  -0.410000   0.000000
            CHANNELS 3 Xrotation Yrotation Zrotation
            JOINT lAnkle
            {
                OFFSET   0.000000  -0.390000   0.000000
                CHANNELS 3 Xrotation Yrotation Zrotation
                JOINT lToeJoint
                {
                    OFFSET   0.000000  -0.050000   0.130000
                    CHANNELS 3 Xrotation Yrotation Zrotation
                    End Site
                    {
                        OFFSET   0.010000   0.002000   0.060000
                    }
                }
            }
        }
    }
}
MOTION
Frames: 15
Frame Time:   0.008333
 -2.668343   0.898437   3.389135   1.198838 -13.210970   1.565292   2.864165   0.282960  -1.608294  -6.071315   0.855667  -0.535095  -3.895653  -7.645609   2.124702  -0.194483  -4.642462  -1.895323  10.390469  12.234228  49.296283 179.910767  76.092190 -179.928523  -1.499866   8.644372   2.730036  -3.885001  15.816395   6.926333 -35.715482  20.500386 -25.148203   0.009180 -78.086420   0.007699  -8.511272  -5.392768  21.069155 -17.778367 -22.348070 -12.069681  32.325633  -0.002257  -0.006601 -16.073059 -23.535327  -3.263068   1.680991  -0.001948  -0.023930   5.311758  12.838843   7.368743   5.475235  -0.004207  -0.007056  -9.629817  16.131384  -2.293851   0.937107  -0.000965   0.001619
 -2.673499   0.897664   3.389255   1.271517 -14.362615   1.800148   2.459591   0.031336  -1.754167  -5.909125   0.960704  -0.553536  -3.891473  -7.777667   2.096047  -0.110147  -4.601297  -1.618567  10.400938  12.624981  49.864461 179.889011  77.082204 -179.911354  -1.407731   8.832025   2.566430  -3.480400  16.355576   6.498474 -34.242588  20.849561 -26.341025   0.012486 -78.148869   0.010632  -8.403483  -5.507713  21.273523 -18.032352 -22.216721 -11.676132  32.083339   0.000025  -0.003769 -16.297192 -23.139709  -3.708548   2.000473  -0.002645  -0.020620   5.019536  13.280737   7.435945   6.544871  -0.007100  -0.011197  -9.678852  16.954292  -2.457478   0.831187  -0.000524   0.001120
 -2.679012   0.897224   3.389384   1.279615 -15.613447   2.024099   2.093757  -0.190061  -1.892918  -5.717803   1.086440  -0.593412  -3.884913  -7.899530   2.072517   0.004442  -4.558416  -1.306580  10.436209  12.996485  50.424542 179.867714  78.048508 -179.893833  -1.310905   8.791775   2.483343  -3.035176  16.888242   5.957012 -32.763292  21.207685 -27.553739   0.013001 -78.183838   0.011113  -8.344955  -5.485305  21.245777 -18.203282 -22.071963 -11.180165  31.849447   0.001974  -0.001479 -16.506467 -22.755683  -4.120312   2.273431  -0.003263  -0.017910   4.736569  13.697425   7.542937   7.769504  -0.010633  -0.016333  -9.522348  17.723138  -2.579704  -0.477148   0.004617   0.000501
 -2.684785   0.896854   3.389544   1.250363 -16.944925   2.250077   1.750743  -0.388179  -2.028252  -5.524379   1.216103  -0.658151  -3.874849  -8.012862   2.053917   0.127008  -4.523408  -1.007559  10.479919  13.343237  50.954342 179.846639  78.956949 -179.874952  -1.215936   8.679751   2.451509  -2.589277  17.401678   5.373932 -31.332835  21.550265 -28.736934   0.011726 -78.199244   0.010030  -8.335789  -5.345703  21.139749 -18.345225 -21.953111 -10.640082  31.648064   0.003398   0.000278 -16.698913 -22.394963  -4.501755   2.517844  -0.003774  -0.015835   4.501761  14.090668   7.660965   9.036984  -0.014312  -0.021585  -9.227308  18.439293  -2.689939  -2.023005   0.011127   0.002103
 -2.690757   0.896405   3.389733   1.198286 -18.302696   2.482074   1.422091  -0.584789  -2.161927  -5.341175   1.331114  -0.742680  -3.863699  -8.119057   2.037710   0.248134  -4.500257  -0.737459  10.525490  13.661596  51.445901 179.825537  79.805315 -179.854635  -1.124681   8.554582   2.432350  -2.155042  17.884849   4.787011 -29.968231  21.861537 -29.874004   0.009824 -78.204509   0.008401  -8.355040  -5.141893  21.007537 -18.465515 -21.859906 -10.083189  31.473167   0.004358   0.001553 -16.875598 -22.057145  -4.855272   2.739175  -0.004149  -0.014161   4.308113  14.487899   7.774818  10.306889  -0.017680  -0.025821  -8.847197  19.134490  -2.800724  -3.671339   0.017721   0.004327
 -2.696811   0.895903   3.390148   1.182654 -19.392098   2.545723   1.040725  -0.877668  -2.117794  -5.196894   1.347414  -0.779712  -3.852415  -8.222063   2.025030   0.381596  -4.530801  -0.520875  10.593076  13.922752  51.877147 179.804851  80.603378 -179.833784  -1.036589   8.413874   2.371911  -1.732778  18.314892   4.183868 -28.661216  22.130540 -30.987561   0.008485 -78.212283   0.007254  -8.378677  -4.930123  20.803499 -18.395990 -21.527693  -9.647295  31.759363   0.002170  -0.000096 -16.950256 -21.641920  -5.322078   2.931401  -0.002985  -0.011695   4.025795  14.800498   8.078127  11.581503  -0.020096  -0.027267  -8.218016  19.755230  -2.904867  -6.773235   0.033764   0.006531
 -2.703058   0.895657   3.390383   1.224243 -20.422852   2.601258   0.659257  -1.158141  -2.102631  -5.100163   1.340748  -0.796465  -3.851302  -8.318389   2.024501   0.516050  -4.569352  -0.291452  10.661425  14.161958  52.289804 179.786745  81.355772 -179.814997  -0.950074   8.246639   2.294963  -1.336795  18.698189   3.600824 -27.434314  22.354826 -32.043404   0.007141 -78.216812   0.006102  -8.402843  -4.722893  20.593934 -18.274356 -21.200659  -9.132578  31.957536   0.000832  -0.000857 -17.367192 -21.087013  -5.685034   2.460917  -0.002226  -0.009281   3.703318  15.102662   8.433347  12.725303  -0.021667  -0.027148  -7.754335  20.360825  -2.983568  -8.108042   0.035176   0.006895
 -2.709620   0.895861   3.390047   1.170046 -21.778804   2.482080   0.484630  -1.286606  -2.031335  -5.025938   1.489029  -0.728284  -3.915816  -8.412801   1.960388   0.652516  -4.621317  -0.032706  10.752632  14.557067  52.703797 179.750936  82.377696 -179.781034  -0.831680   8.247218   2.084910  -0.878486  19.040604   3.046634 -25.737315  22.507537 -33.493847   0.004481 -78.204834   0.003789  -8.336163  -4.702443  20.668686 -17.770687 -20.484352  -8.212831  31.763737   0.001551  -0.000225 -17.514838 -20.462155  -5.811952   2.019610  -0.000629  -0.008321   2.818793  15.041997   9.194777  15.292776  -0.035723  -0.045428  -7.122180  20.753617  -3.041417 -10.962804   0.054825   0.029867
 -2.716162   0.896099   3.389683   1.069327 -23.431275   2.348861   0.340873  -1.322163  -1.952482  -4.915758   1.709584  -0.678478  -3.971770  -8.496098   1.899843   0.790468  -4.635318   0.230750  10.841539  14.948915  53.103725 179.706439  83.352787 -179.737645  -0.713455   8.127899   1.989269  -0.394805  19.381776   2.429341 -24.071601  22.647420 -34.925637   0.000673 -78.177547   0.000450  -8.308517  -4.577887  20.581863 -17.231359 -19.697986  -7.294893  31.525027   0.002461   0.000857 -17.599387 -19.771993  -5.916657   1.649499   0.000524  -0.006852   1.979997  14.934827   9.963734  18.058811  -0.052743  -0.067684  -6.279726  21.097397  -3.123267 -13.778977   0.071635   0.058747
 -2.722673   0.896299   3.389310   0.965609 -25.219127   2.226192   0.195597  -1.348441  -1.883483  -4.807205   1.933710  -0.649608  -4.020466  -8.573805   1.845971   0.927203  -4.644257   0.486434  10.928264  15.320726  53.482997 179.648510  84.265514 -179.679914  -0.598929   7.980542   1.954091   0.082913  19.711597   1.794090 -22.479928  22.764006 -36.299201  -0.003587 -78.139315  -0.003298  -8.314962  -4.372734  20.435576 -16.715218 -18.872531  -6.411426  31.291504   0.003207   0.001930 -17.662629 -19.014576  -5.998473   1.336714   0.001312  -0.005513   1.223094  14.804213  10.692259  20.775231  -0.069134  -0.086674  -5.405125  21.401064  -3.222198 -15.491338   0.073386   0.071897
 -2.729139   0.896418   3.388909   0.871073 -27.046768   2.106794   0.046094  -1.396898  -1.819096  -4.711205   2.128160  -0.636510  -4.066085  -8.647452   1.796657   1.061121  -4.660656   0.723480  11.013417  15.664326  53.836129 179.573728  85.117887 -179.604534  -0.489193   7.832525   1.930518   0.542349  20.014209   1.166863 -20.975137  22.846840 -37.606215  -0.007416 -78.097286  -0.006676  -8.340071  -4.126615  20.261453 -16.230904 -18.029151  -5.556286  31.079312   0.003688   0.002744 -17.722909 -18.221729  -6.065399   1.071062   0.001809  -0.004428   0.536825  14.658256  11.379819  23.374622  -0.083114  -0.100130  -4.506360  21.669683  -3.334538 -16.234325   0.065460   0.069013
 -2.735540   0.896430   3.388466   0.789051 -28.871981   1.983930  -0.105484  -1.473448  -1.755465  -4.629012   2.283520  -0.633421  -4.109964  -8.717244   1.750905   1.190795  -4.686883   0.937667  11.096721  15.978167  54.161131 179.477065  85.913914 -179.506677  -0.384239   7.687896   1.897179   0.977234  20.282281   0.562226 -19.561907  22.892159 -38.843146  -0.010359 -78.056271  -0.009283  -8.371848  -3.868905  20.064821 -15.781732 -17.191935  -4.727939  30.896751   0.003903   0.003258 -17.788742 -17.427260  -6.122766   0.844327   0.002085  -0.003526  -0.087319  14.506547  12.030039  25.832467  -0.093948  -0.108110  -3.594730  21.913738  -3.455022 -16.173340   0.051564   0.054504
 -2.741860   0.896334   3.387990   0.725394 -30.668509   1.856074  -0.262383  -1.578605  -1.690675  -4.561270   2.398175  -0.635769  -4.152252  -8.783326   1.708174   1.316743  -4.723553   1.129525  11.179024  16.263027  54.458740 179.349139  86.657747 -179.377162  -0.283786   7.545476   1.848577   1.384836  20.514917  -0.012175 -18.240532  22.901122 -40.008411  -0.012297 -78.018800  -0.011013  -8.402793  -3.617629  19.845976 -15.368050 -16.367806  -3.920989  30.742100   0.003911   0.003503 -17.861584 -16.636937  -6.170531   0.648890   0.002208  -0.002807  -0.638613  14.358243  12.631899  28.180403  -0.101762  -0.111936  -2.678660  22.134511  -3.581703 -15.464444   0.033786   0.033505
 -2.747970   0.896466   3.387526   0.457796 -32.544344   1.566251  -0.229464  -1.477701  -1.583854  -4.450369   2.482091  -0.613548  -4.238358  -8.784375   1.688748   1.410298  -4.800003   1.273484  11.299178  16.481757  54.712083 179.102978  87.493268 -179.129913  -0.187589   7.428230   1.780362   1.792723  20.569518  -0.497040 -16.646709  22.574413 -41.447161  -0.029595 -77.861498  -0.026844  -8.439993  -3.409045  19.850613 -14.675595 -15.456086  -3.042832  30.397635   0.004809   0.004749 -17.821305 -15.858499  -6.196608   0.477094   0.002244  -0.002249  -1.063261  13.734659  13.132912  31.270492  -0.121193  -0.135673  -2.310307  21.873200  -3.365349 -14.254483   0.011431  -0.001271
 -2.753948   0.896717   3.387131   0.185800 -34.460384   1.280108  -0.216858  -1.375319  -1.496275  -4.334372   2.545950  -0.598761  -4.315788  -8.776799   1.679287   1.508472  -4.868973   1.404014  11.422319  16.684324  54.943598 178.655089  88.286589 -178.680775  -0.090980   7.229588   1.752072   2.183340  20.565762  -0.979761 -15.146675  22.202418 -42.823657  -0.042690 -77.709346  -0.038854  -8.500537  -3.133379  19.646307 -13.975998 -14.513556  -2.209096  29.990917   0.005782   0.006226 -17.734968 -15.051135  -6.219481   0.328705   0.002184  -0.001800  -1.407643  13.134964  13.497286  34.311621  -0.137875  -0.153237  -1.962450  21.623607  -3.162094 -13.164443  -0.006028  -0.025680
